<?xml version="1.0" encoding="UTF-8"?><svg id="Layer_1" xmlns="http://www.w3.org/2000/svg" viewBox="0 0 120.47 32.28"><rect x="0" y="0" width="120.47" height="32.28" rx="16.14" ry="16.14" style="fill:#be1e2d;"/><rect x="6.69" y="6.69" width="105.71" height="18.31" rx="9.15" ry="9.15" style="fill:#fff;"/><g><path d="M11.46,25.1V11.95c.88,0,1.91-.08,3.1-.25v1.48c.58-1,1.29-1.49,2.12-1.49,.89,0,1.6,.47,2.13,1.4s.8,2.18,.8,3.75c0,3.47-1,5.2-3.01,5.2-.83,0-1.5-.36-2.04-1.07v4.14h-3.1Zm4.09-11.98c-.69,0-1.03,1.22-1.03,3.67s.33,3.82,.98,3.82c.59,0,.88-1.27,.88-3.82s-.28-3.67-.84-3.67Z" style="fill:#be1e2d;"/><path d="M29.05,11.69v10.09h-3.1v-1.57c-.71,1.17-1.63,1.76-2.75,1.76-1.51,0-2.27-.85-2.27-2.54v-7.48c1.04-.05,2.07-.14,3.1-.25v7.65c0,.66,.18,1,.53,1,.93,0,1.39-1.14,1.39-3.43v-4.96c1.04-.05,2.07-.14,3.1-.25Z" style="fill:#be1e2d;"/><path d="M38.88,21.78h-3.1v-7.22c0-.74-.18-1.1-.53-1.1s-.68,.29-.94,.87c-.27,.58-.4,1.27-.4,2.06v5.39h-3.1V11.92c1.06,0,2.1-.08,3.1-.24v1.84c.77-1.22,1.71-1.83,2.82-1.83,1.44,0,2.16,.84,2.16,2.52v7.57Z" style="fill:#be1e2d;"/><path d="M50.46,11.97v1.1h-1.38v6.96c0,.44,.12,.65,.36,.65,.18,0,.28-.15,.31-.44l.88,.1c-.24,1.03-1.02,1.54-2.33,1.54-1.56,0-2.33-.76-2.33-2.28v-6.53h-1.04v-1.1h1.04v-1.74c1.07-.34,2.1-.83,3.1-1.46v3.2h1.38Z" style="fill:#be1e2d;"/><path d="M59.57,11.69v10.09h-3.1v-1.57c-.71,1.17-1.63,1.76-2.75,1.76-1.51,0-2.27-.85-2.27-2.54v-7.48c1.04-.05,2.07-.14,3.1-.25v7.65c0,.66,.18,1,.53,1,.93,0,1.39-1.14,1.39-3.43v-4.96c1.04-.05,2.07-.14,3.1-.25Z" style="fill:#be1e2d;"/><path d="M65.94,11.97v1.1h-1.38v6.96c0,.44,.12,.65,.36,.65,.18,0,.28-.15,.31-.44l.88,.1c-.24,1.03-1.02,1.54-2.33,1.54-1.56,0-2.33-.76-2.33-2.28v-6.53h-1.04v-1.1h1.04v-1.74c1.07-.34,2.1-.83,3.1-1.46v3.2h1.38Z" style="fill:#be1e2d;"/><path d="M70.77,11.69c2.83,0,4.24,1.72,4.24,5.15s-1.41,5.15-4.24,5.15-4.25-1.72-4.25-5.15,1.42-5.15,4.25-5.15Zm0,.87c-.68,0-1.03,1.43-1.03,4.28s.34,4.28,1.03,4.28,1.04-1.43,1.04-4.28-.35-4.28-1.04-4.28Z" style="fill:#be1e2d;"/><path d="M82.48,15.51h-2.12c.07-.38,.14-.67,.2-.85,.08-.27,.12-.51,.12-.72,0-.42-.13-.62-.39-.62-.2,0-.39,.27-.57,.82-.18,.55-.27,1.13-.27,1.74v5.89h-3.1V11.94h.6c.71,0,1.54-.08,2.5-.25v1.62c.5-1.08,1.12-1.62,1.85-1.62,1,0,1.49,.63,1.49,1.89,0,.33-.05,.71-.14,1.14-.03,.18-.09,.44-.16,.79Z" style="fill:#be1e2d;"/><path d="M83.79,21.78V11.95c.97,0,2-.09,3.1-.26v10.09h-3.1Zm1.57-13.65c.96,0,1.44,.43,1.44,1.29s-.48,1.29-1.44,1.29-1.44-.43-1.44-1.29,.48-1.29,1.44-1.29Z" style="fill:#be1e2d;"/><path d="M97.27,21.42c-.76,.34-1.5,.51-2.22,.51-1.06,0-1.72-.38-1.97-1.14-.51,.79-1.26,1.19-2.22,1.19-1.81,0-2.71-.96-2.71-2.89,0-1.46,.83-2.49,2.48-3.08,1.52-.55,2.27-1.2,2.27-1.97,0-1.01-.44-1.51-1.31-1.51-1.01,0-1.51,.49-1.51,1.46,0,.31,.08,.71,.24,1.21l-1.54-.34c-.04-.31-.06-.59-.06-.86,0-1.56,1.24-2.34,3.72-2.34s3.53,.73,3.53,2.19v5.97c0,.61,.17,.92,.52,.92,.11,0,.27-.07,.47-.21l.3,.9Zm-4.39-5.56c-.19,.25-.42,.47-.67,.63-.64,.43-.96,1.15-.96,2.17,0,1.3,.22,1.95,.66,1.95,.65,0,.97-.64,.97-1.93v-2.82Z" style="fill:#be1e2d;"/><path d="M100.91,8.26v13.51h-3.1V8.46c.85,0,1.89-.06,3.1-.19Z" style="fill:#be1e2d;"/><path d="M109.29,14.47l-1.5,.3c0-1.47-.59-2.21-1.78-2.21-.73,0-1.09,.34-1.09,1.03,0,.51,.63,1.05,1.88,1.64,1.92,.9,2.89,2.05,2.89,3.44,0,2.22-1.23,3.33-3.67,3.33-2.59,0-3.89-1.11-3.89-3.33l1.59-.37c-.02,.21-.03,.42-.03,.6,0,.57,.21,1.07,.62,1.49,.42,.42,.91,.63,1.47,.63,.75,0,1.12-.36,1.12-1.09,0-.49-.6-1.03-1.81-1.62-1.82-.9-2.72-2.05-2.72-3.45,0-.93,.35-1.69,1.04-2.29,.7-.6,1.59-.89,2.68-.89,1.94,0,3.01,.92,3.2,2.77Z" style="fill:#be1e2d;"/></g></svg>